<!-- <svg xmlns="http://www.w3.org/2000/svg" xmlns:xlink="http://www.w3.org/1999/xlink" aria-hidden="true" role="img" class="iconify iconify--logos" width="31.88" height="32" preserveAspectRatio="xMidYMid meet" viewBox="0 0 256 257"><defs><linearGradient id="IconifyId1813088fe1fbc01fb466" x1="-.828%" x2="57.636%" y1="7.652%" y2="78.411%"><stop offset="0%" stop-color="#41D1FF"></stop><stop offset="100%" stop-color="#BD34FE"></stop></linearGradient><linearGradient id="IconifyId1813088fe1fbc01fb467" x1="43.376%" x2="50.316%" y1="2.242%" y2="89.03%"><stop offset="0%" stop-color="#FFEA83"></stop><stop offset="8.333%" stop-color="#FFDD35"></stop><stop offset="100%" stop-color="#FFA800"></stop></linearGradient></defs><path fill="url(#IconifyId1813088fe1fbc01fb466)" d="M255.153 37.938L134.897 252.976c-2.483 4.44-8.862 4.466-11.382.048L.875 37.958c-2.746-4.814 1.371-10.646 6.827-9.67l120.385 21.517a6.537 6.537 0 0 0 2.322-.004l117.867-21.483c5.438-.991 9.574 4.796 6.877 9.62Z"></path><path fill="url(#IconifyId1813088fe1fbc01fb467)" d="M185.432.063L96.44 17.501a3.268 3.268 0 0 0-2.634 3.014l-5.474 92.456a3.268 3.268 0 0 0 3.997 3.378l24.777-5.718c2.318-.535 4.413 1.507 3.936 3.838l-7.361 36.047c-.495 2.426 1.782 4.5 4.151 3.78l15.304-4.649c2.372-.72 4.652 1.36 4.15 3.788l-11.698 56.621c-.732 3.542 3.979 5.473 5.943 2.437l1.313-2.028l72.516-144.72c1.215-2.423-.88-5.186-3.54-4.672l-25.505 4.922c-2.396.462-4.435-1.77-3.759-4.114l16.646-57.705c.677-2.35-1.37-4.583-3.769-4.113Z"></path></svg> -->


<svg fill="#000000" width="32px" height="32px" viewBox="0 0 128 128" data-name="Layer 1" id="Layer_1" xmlns="http://www.w3.org/2000/svg"><title/><path d="M51.54,61.5A12.46,12.46,0,1,0,64,49.05,12.47,12.47,0,0,0,51.54,61.5Zm22.92,0A10.46,10.46,0,1,1,64,51.05,10.47,10.47,0,0,1,74.46,61.5Z"/><path d="M14.2,31.49l-.06.12A1,1,0,0,0,14.48,33a1,1,0,0,0,.51.14,1,1,0,0,0,.86-.48h0a7.64,7.64,0,0,0,9.33-11.69h0a1,1,0,0,0-1.38-1.45l-.09.09A7.63,7.63,0,0,0,14.2,31.49Zm5.1-11.33a5.65,5.65,0,1,1-5.65,5.65A5.65,5.65,0,0,1,19.3,20.16Z"/><path d="M110.16,78.76a7.64,7.64,0,0,0-4.31-6.86c0-.05,0-.1,0-.15a1,1,0,0,0-1.94-.49,7.56,7.56,0,0,0-1.44-.14,7.63,7.63,0,0,0-4.65,13.7A1,1,0,0,0,99.52,86l.08-.12a7.64,7.64,0,0,0,10.56-7.07Zm-7.65,5.65a5.65,5.65,0,1,1,5.65-5.65A5.66,5.66,0,0,1,102.51,84.41Z"/><path d="M106.12,30.46A7.56,7.56,0,0,0,110,29.37h0a1,1,0,0,0,.82.43,1,1,0,0,0,.57-.18,1,1,0,0,0,.24-1.39l-.07-.11A7.64,7.64,0,0,0,101.28,16.9l-.1-.08a1,1,0,0,0-1.28,1.54h0a7.56,7.56,0,0,0-1.43,4.44A7.65,7.65,0,0,0,106.12,30.46Zm5.65-7.65a5.65,5.65,0,1,1-5.65-5.65A5.66,5.66,0,0,1,111.77,22.81Z"/><path d="M80.89,116.1a1,1,0,0,0,1,.69,1.12,1.12,0,0,0,.31-.05c.66-.22,1.31-.44,1.95-.68a1,1,0,0,0,.6-1.28,1,1,0,0,0-1.29-.6c-.62.23-1.25.45-1.88.66A1,1,0,0,0,80.89,116.1Z"/><path d="M118.1,46.45c.17.63.34,1.28.5,1.92a1,1,0,0,0,1,.77l.23,0a1,1,0,0,0,.74-1.2c-.16-.67-.33-1.34-.52-2a1,1,0,1,0-1.92.54Z"/><path d="M119.23,77.22a1,1,0,0,0,1-.74c.18-.66.35-1.33.5-2a1,1,0,0,0-2-.45c-.15.65-.31,1.3-.48,1.94a1,1,0,0,0,.71,1.22A1.15,1.15,0,0,0,119.23,77.22Z"/><path d="M119.54,53.26c.1.65.18,1.31.26,2a1,1,0,0,0,1,.89h.11a1,1,0,0,0,.88-1.11c-.07-.68-.16-1.36-.26-2a1,1,0,1,0-2,.29Z"/><path d="M118.05,80.11a1,1,0,0,0-1.28.6c-.23.62-.47,1.24-.71,1.85a1,1,0,0,0,.55,1.31,1,1,0,0,0,.37.07,1,1,0,0,0,.93-.63c.26-.63.5-1.27.74-1.92A1,1,0,0,0,118.05,80.11Z"/><path d="M116.55,41.72a1,1,0,0,0,.93.65,1.15,1.15,0,0,0,.36-.07,1,1,0,0,0,.58-1.29c-.24-.64-.5-1.28-.76-1.91a1,1,0,0,0-1.85.77C116.07,40.48,116.31,41.1,116.55,41.72Z"/><path d="M75,118.58l.19,0c.68-.13,1.35-.28,2-.43a1,1,0,0,0,.75-1.2,1,1,0,0,0-1.2-.75c-.65.15-1.3.29-1.95.41a1,1,0,0,0,.19,2Z"/><path d="M91.13,111.8a1,1,0,0,0-1.35-.43c-.58.31-1.18.6-1.78.89a1,1,0,0,0,.43,1.9,1,1,0,0,0,.42-.09c.63-.3,1.24-.61,1.86-.92A1,1,0,0,0,91.13,111.8Z"/><path d="M114,87.09c-.31.59-.62,1.17-.94,1.75a1,1,0,0,0,.38,1.36,1.09,1.09,0,0,0,.49.13,1,1,0,0,0,.87-.52c.34-.59.66-1.2,1-1.81a1,1,0,0,0-.43-1.35A1,1,0,0,0,114,87.09Z"/><path d="M113.1,32.26a1,1,0,0,0-.37,1.36c.33.58.65,1.16,1,1.75a1,1,0,0,0,.88.53,1.12,1.12,0,0,0,.47-.11,1,1,0,0,0,.42-1.35c-.32-.61-.66-1.22-1-1.81A1,1,0,0,0,113.1,32.26Z"/><path d="M121.61,69.41c.09-.68.17-1.36.24-2a1,1,0,0,0-2-.2c-.07.67-.14,1.32-.23,2a1,1,0,0,0,.85,1.13h.14A1,1,0,0,0,121.61,69.41Z"/><path d="M110.09,96.28a1,1,0,0,0,.8-.4c.41-.56.81-1.12,1.19-1.69a1,1,0,0,0-1.65-1.12c-.37.55-.76,1.09-1.15,1.62a1,1,0,0,0,.21,1.4A1,1,0,0,0,110.09,96.28Z"/><path d="M94.63,110.73a1,1,0,0,0,.54-.15c.58-.37,1.16-.75,1.72-1.14a1,1,0,1,0-1.13-1.65c-.55.38-1.1.74-1.66,1.1a1,1,0,0,0,.53,1.84Z"/><path d="M120.13,60.2c0,.43,0,.87,0,1.3v.69a1,1,0,0,0,1,1h0a1,1,0,0,0,1-1V61.5c0-.45,0-.9,0-1.35a1,1,0,0,0-1-1A1,1,0,0,0,120.13,60.2Z"/><path d="M106.16,98.57c-.44.5-.88,1-1.34,1.47a1,1,0,0,0,0,1.41,1,1,0,0,0,.69.28,1,1,0,0,0,.72-.32c.47-.5.94-1,1.39-1.52a1,1,0,0,0-1.5-1.32Z"/><path d="M101.25,103.5c-.5.44-1,.87-1.52,1.3a1,1,0,0,0,.64,1.77,1,1,0,0,0,.64-.23c.53-.44,1-.89,1.56-1.34a1,1,0,0,0,.09-1.42A1,1,0,0,0,101.25,103.5Z"/><path d="M18.85,97.52a1,1,0,0,0,.79-1.61c-.4-.51-.78-1-1.16-1.54a1,1,0,0,0-1.39-.23,1,1,0,0,0-.23,1.4q.59.81,1.2,1.59A1,1,0,0,0,18.85,97.52Z"/><path d="M26.31,105.76c.5.43,1,.85,1.54,1.27a1,1,0,0,0,.62.22,1,1,0,0,0,.78-.38,1,1,0,0,0-.16-1.41c-.5-.4-1-.8-1.48-1.22a1,1,0,1,0-1.3,1.52Z"/><path d="M50.24,117a1,1,0,0,0,.75,1.2c.65.15,1.3.28,1.95.41l.19,0a1,1,0,0,0,.19-2c-.63-.12-1.26-.25-1.88-.39A1,1,0,0,0,50.24,117Z"/><path d="M21.28,100.93q.67.73,1.38,1.44a1,1,0,0,0,.71.3,1,1,0,0,0,.7-.29,1,1,0,0,0,0-1.41c-.45-.46-.89-.92-1.33-1.39a1,1,0,0,0-1.47,1.35Z"/><path d="M43.7,114.93a1,1,0,0,0,.6,1.28c.63.22,1.26.44,1.89.64a1.06,1.06,0,0,0,.31.05,1,1,0,0,0,.3-2L45,114.33A1,1,0,0,0,43.7,114.93Z"/><path d="M37.9,113.46l1.79.86a1.06,1.06,0,0,0,.42.09,1,1,0,0,0,.91-.58,1,1,0,0,0-.49-1.33c-.58-.26-1.16-.54-1.73-.83a1,1,0,0,0-1.34.44A1,1,0,0,0,37.9,113.46Z"/><path d="M8.43,78.67a1,1,0,0,0,1,.7,1,1,0,0,0,.3,0,1,1,0,0,0,.66-1.25c-.19-.61-.37-1.23-.54-1.85a1,1,0,0,0-1.93.52C8.05,77.4,8.24,78,8.43,78.67Z"/><path d="M10.89,85.2a1,1,0,0,0,.92.59,1,1,0,0,0,.4-.09,1,1,0,0,0,.51-1.32c-.26-.58-.52-1.18-.76-1.77a1,1,0,1,0-1.85.75C10.36,84,10.62,84.59,10.89,85.2Z"/><path d="M7.6,52.24l.18,0a1,1,0,0,0,1-.82c.11-.63.24-1.26.38-1.89a1,1,0,0,0-2-.42c-.14.64-.27,1.3-.39,1.95A1,1,0,0,0,7.6,52.24Z"/><path d="M31.59,108.57a1,1,0,0,0,.28,1.39L33.55,111a1,1,0,0,0,1.38-.33,1,1,0,0,0-.33-1.37c-.55-.34-1.09-.68-1.62-1A1,1,0,0,0,31.59,108.57Z"/><path d="M8.75,71.54c-.11-.63-.21-1.26-.31-1.9a1,1,0,0,0-2,.29c.1.66.21,1.31.32,2a1,1,0,0,0,1,.82l.18,0A1,1,0,0,0,8.75,71.54Z"/><path d="M14.87,88.69a1,1,0,1,0-1.75,1c.32.58.66,1.15,1,1.72a1,1,0,0,0,.86.49,1.06,1.06,0,0,0,.51-.14,1,1,0,0,0,.34-1.38C15.5,89.8,15.18,89.25,14.87,88.69Z"/><path d="M9.11,45.56a1,1,0,0,0,.29,0,1,1,0,0,0,1-.71q.29-.91.6-1.83a1,1,0,1,0-1.89-.65c-.22.62-.42,1.25-.62,1.89A1,1,0,0,0,9.11,45.56Z"/><path d="M11.41,39.11a1,1,0,0,0,.41.08,1,1,0,0,0,.92-.59q.39-.87.81-1.74A1,1,0,1,0,11.76,36c-.3.6-.58,1.2-.85,1.81A1,1,0,0,0,11.41,39.11Z"/><path d="M7,65.92H7a1,1,0,0,0,.94-1c0-.64-.07-1.28-.08-1.93a1,1,0,0,0-1-1,1,1,0,0,0-1,1c0,.67,0,1.33.08,2A1,1,0,0,0,7,65.92Z"/><path d="M6.9,59.06H7a1,1,0,0,0,1-.94c0-.64.09-1.28.15-1.91a1,1,0,0,0-2-.19Q6,57,6,58A1,1,0,0,0,6.9,59.06Z"/><path d="M58.14,117.33a1,1,0,0,0-.21,2h.12a6,6,0,0,0,11.9,0h.12a1,1,0,1,0-.21-2h0a6,6,0,0,0-11.69,0ZM64,114.65a4,4,0,0,1,4,3.83v0s0,.07,0,.11a4,4,0,0,1-8,0,.52.52,0,0,1,0-.11v0A4,4,0,0,1,64,114.65Z"/><path d="M47.07,7.91a1,1,0,0,0,.3,0c.63-.2,1.27-.39,1.91-.56a1,1,0,0,0-.52-1.93c-.67.18-1.33.37-2,.58a1,1,0,0,0,.3,2Z"/><path d="M34.16,13.77a1,1,0,0,0,.52-.15c.57-.35,1.14-.69,1.72-1a1,1,0,0,0,.38-1.37,1,1,0,0,0-1.36-.38c-.61.34-1.2.69-1.79,1.05a1,1,0,0,0-.32,1.38A1,1,0,0,0,34.16,13.77Z"/><path d="M40.43,10.44a1,1,0,0,0,.41-.09c.61-.28,1.22-.54,1.83-.8a1,1,0,0,0,.55-1.3,1,1,0,0,0-1.31-.55c-.63.27-1.27.54-1.89.82a1,1,0,0,0,.41,1.92Z"/><path d="M54,6.24l.18,0c.65-.11,1.31-.22,2-.31a1,1,0,0,0-.28-2c-.68.09-1.37.2-2,.32a1,1,0,0,0,.17,2Z"/><path d="M28.35,17.85a1,1,0,0,0,.62-.22l1.58-1.22a1,1,0,1,0-1.19-1.6c-.55.41-1.1.83-1.64,1.26a1,1,0,0,0,.63,1.78Z"/><path d="M88.19,10.83c.6.29,1.19.59,1.78.9a1.11,1.11,0,0,0,.46.11A1,1,0,0,0,90.9,10c-.61-.32-1.23-.63-1.85-.93a1,1,0,1,0-.86,1.8Z"/><path d="M81.72,8.22c.63.21,1.26.43,1.88.66A.84.84,0,0,0,84,9,1,1,0,0,0,84.3,7q-1-.36-2-.69a1,1,0,0,0-.63,1.9Z"/><path d="M61,5.44h0c.66,0,1.33,0,2-.06a1,1,0,0,0,0-2c-.7,0-1.38,0-2.07.07a1,1,0,0,0,.05,2Z"/><path d="M75,6.43c.65.13,1.3.28,1.94.43a1,1,0,0,0,.24,0,1,1,0,0,0,.22-2c-.66-.16-1.34-.3-2-.44a1,1,0,0,0-1.18.79A1,1,0,0,0,75,6.43Z"/><path d="M68.06,5.5c.67,0,1.33.11,2,.18h.11a1,1,0,0,0,.1-2c-.68-.07-1.36-.13-2.05-.18a1,1,0,0,0-.15,2Z"/><path d="M94.28,14.23c.56.36,1.11.73,1.66,1.11a1,1,0,0,0,.57.18,1,1,0,0,0,.57-1.82c-.57-.39-1.14-.78-1.72-1.15a1,1,0,0,0-1.38.3A1,1,0,0,0,94.28,14.23Z"/><path d="M58,20.81h.14a6,6,0,0,0,11.64,0H70a1,1,0,0,0,.14-2l-.13,0A6,6,0,0,0,58,18.8l-.13,0a1,1,0,0,0,.14,2Zm6-5.43a4,4,0,0,1,4,4c0,.06,0,.11,0,.16a0,0,0,0,1,0,0v0a4,4,0,0,1-7.94,0s0,0,0,0a0,0,0,0,1,0,0c0-.05,0-.1,0-.16A4,4,0,0,1,64,15.38Z"/><path d="M28.72,85.52a1,1,0,0,0,.54-.16A1,1,0,0,0,29.55,84c-.35-.55-.7-1.11-1-1.68a1,1,0,0,0-1.73,1c.35.59.71,1.17,1.09,1.75A1,1,0,0,0,28.72,85.52Z"/><path d="M57.57,102.12c-.65-.1-1.29-.21-1.93-.35a1,1,0,0,0-.4,2c.67.14,1.34.26,2,.37h.16a1,1,0,0,0,.15-2Z"/><path d="M21,64.79a1,1,0,0,0,1,.92h.07A1,1,0,0,0,23,64.64c0-.65-.08-1.31-.1-2a1,1,0,0,0-1-1,1,1,0,0,0-1,1C20.91,63.42,21,64.11,21,64.79Z"/><path d="M94.89,91.57c.48-.49,1-1,1.4-1.51a1,1,0,1,0-1.49-1.32c-.44.49-.88,1-1.34,1.44a1,1,0,0,0,0,1.41,1,1,0,0,0,.7.29A1,1,0,0,0,94.89,91.57Z"/><path d="M38.23,95.82A1,1,0,0,0,38.84,94c-.51-.4-1-.81-1.52-1.24a1,1,0,0,0-1.41.12A1,1,0,0,0,36,94.32c.52.44,1.06.87,1.6,1.3A1,1,0,0,0,38.23,95.82Z"/><path d="M51.18,22.38a1,1,0,0,0,.3-.05c.63-.2,1.25-.38,1.89-.55a1,1,0,0,0,.71-1.23,1,1,0,0,0-1.22-.7c-.67.17-1.33.37-2,.58a1,1,0,0,0,.31,1.95Z"/><path d="M25.61,41.86c-.32.6-.62,1.22-.9,1.85a1,1,0,0,0,.5,1.32,1,1,0,0,0,.41.09,1,1,0,0,0,.91-.59c.27-.59.56-1.18.85-1.76a1,1,0,1,0-1.77-.91Z"/><path d="M23.11,72.66a1,1,0,0,0,.24,0,1,1,0,0,0,.73-1.21c-.16-.64-.3-1.28-.43-1.92a1,1,0,0,0-1.17-.79,1,1,0,0,0-.79,1.18c.14.67.28,1.34.45,2A1,1,0,0,0,23.11,72.66Z"/><path d="M25.55,76.1a1,1,0,0,0-1.29-.58,1,1,0,0,0-.58,1.29q.36,1,.78,1.92a1,1,0,0,0,.91.6.93.93,0,0,0,.4-.09,1,1,0,0,0,.52-1.31C26,77.33,25.78,76.72,25.55,76.1Z"/><path d="M21.29,55.54c-.1.68-.18,1.36-.24,2.05A1,1,0,0,0,22,58.67h.09a1,1,0,0,0,1-.91c.06-.66.14-1.31.23-2a1,1,0,0,0-.86-1.12A1,1,0,0,0,21.29,55.54Z"/><path d="M24.12,47.86a1,1,0,0,0-1.25.65q-.32,1-.57,2A1,1,0,0,0,23,51.71a.73.73,0,0,0,.25,0,1,1,0,0,0,1-.75c.17-.63.35-1.26.55-1.89A1,1,0,0,0,24.12,47.86Z"/><path d="M82.42,98.28A1,1,0,0,0,82,99.62a1,1,0,0,0,.9.55.87.87,0,0,0,.44-.11c.62-.31,1.23-.63,1.82-1a1,1,0,0,0-1-1.74C83.58,97.67,83,98,82.42,98.28Z"/><path d="M76,100.83a1,1,0,0,0,.29,2,.93.93,0,0,0,.29-.05c.66-.2,1.32-.41,2-.65a1,1,0,0,0-.68-1.88C77.29,100.43,76.67,100.64,76,100.83Z"/><path d="M61.42,103.56a1,1,0,0,0,1,1c.53,0,1.07,0,1.61,0h.44a1,1,0,1,0,0-2H64l-1.54,0A1,1,0,0,0,61.42,103.56Z"/><path d="M33.46,33.5a1,1,0,0,0,.72-.31c.45-.48.92-.94,1.39-1.39a1,1,0,0,0-1.38-1.45c-.5.48-1,1-1.46,1.46a1,1,0,0,0,.73,1.69Z"/><path d="M50.9,100.49c-.62-.2-1.24-.43-1.84-.66a1,1,0,1,0-.73,1.86c.64.25,1.28.48,1.94.7a.84.84,0,0,0,.31,0,1,1,0,0,0,.32-2Z"/><path d="M29.42,35.75q-.62.82-1.2,1.68a1,1,0,0,0,.27,1.38,1,1,0,0,0,1.39-.27c.37-.54.75-1.07,1.14-1.6a1,1,0,1,0-1.6-1.19Z"/><path d="M31,89.2c.44.53.9,1,1.36,1.55a1,1,0,0,0,.74.32,1,1,0,0,0,.67-.27,1,1,0,0,0,.06-1.41c-.44-.48-.88-1-1.3-1.47A1,1,0,1,0,31,89.2Z"/><path d="M68.46,103.4a1,1,0,0,0,1,.87h.13c.68-.09,1.36-.2,2-.32a1,1,0,1,0-.35-2c-.65.12-1.29.22-2,.3A1,1,0,0,0,68.46,103.4Z"/><path d="M38.71,28.82a1,1,0,0,0,.6-.2c.53-.39,1.06-.77,1.6-1.14a1,1,0,1,0-1.12-1.66q-.85.59-1.68,1.2a1,1,0,0,0-.2,1.4A1,1,0,0,0,38.71,28.82Z"/><path d="M45,99.12a1,1,0,0,0-.41-1.35c-.58-.31-1.14-.63-1.7-1a1,1,0,1,0-1,1.72c.58.35,1.18.69,1.79,1A1,1,0,0,0,45,99.12Z"/><path d="M44.67,25.08a.93.93,0,0,0,.46-.12c.58-.3,1.17-.58,1.77-.86a1,1,0,0,0-.83-1.82c-.63.29-1.25.59-1.86.91a1,1,0,0,0,.46,1.89Z"/><path d="M91.24,93.64a1,1,0,0,0-1.41-.15c-.51.41-1,.81-1.55,1.2a1,1,0,0,0-.22,1.4,1,1,0,0,0,1.4.21c.55-.4,1.1-.82,1.63-1.26A1,1,0,0,0,91.24,93.64Z"/><path d="M74.79,21.82c.65.18,1.29.37,1.93.58a1.12,1.12,0,0,0,.31.05,1,1,0,0,0,.31-2c-.67-.21-1.35-.41-2-.6a1,1,0,1,0-.52,1.93Z"/><path d="M105.51,49.78a1,1,0,1,0-1.92.55c.18.64.34,1.29.49,2a1,1,0,0,0,1,.78.83.83,0,0,0,.22,0,1,1,0,0,0,.75-1.2C105.88,51.14,105.7,50.46,105.51,49.78Z"/><path d="M89.13,29a1,1,0,0,0,.61.21,1,1,0,0,0,.62-1.79c-.56-.43-1.13-.85-1.71-1.25a1,1,0,1,0-1.14,1.64C88.06,28.15,88.6,28.55,89.13,29Z"/><path d="M106.09,63.38a1,1,0,0,0-1.06.93c0,.67-.11,1.34-.19,2a1,1,0,0,0,.88,1.11h.11a1,1,0,0,0,1-.88c.08-.7.14-1.4.19-2.11A1,1,0,0,0,106.09,63.38Z"/><path d="M106.89,57.05a1,1,0,1,0-2,.2c.06.67.12,1.34.15,2a1,1,0,0,0,1,1h0a1,1,0,0,0,1-1.05C107,58.45,107,57.75,106.89,57.05Z"/><path d="M81.41,24.25c.6.28,1.21.58,1.8.89a1,1,0,0,0,.46.12,1,1,0,0,0,.47-1.88c-.62-.33-1.25-.65-1.89-.95a1,1,0,0,0-.84,1.82Z"/><path d="M102.89,42.86a1,1,0,0,0-1.33-.47,1,1,0,0,0-.47,1.34c.29.6.57,1.22.83,1.84a1,1,0,0,0,.92.61,1.09,1.09,0,0,0,.39-.08,1,1,0,0,0,.53-1.31C103.49,44.14,103.2,43.5,102.89,42.86Z"/><path d="M97.5,37.65c.39.55.77,1.11,1.13,1.67a1,1,0,0,0,.84.46,1,1,0,0,0,.85-1.54c-.39-.59-.78-1.18-1.19-1.75a1,1,0,0,0-1.4-.23A1,1,0,0,0,97.5,37.65Z"/><path d="M94.33,33.74a1,1,0,0,0,.73.32,1,1,0,0,0,.68-.26,1,1,0,0,0,.06-1.42c-.48-.52-1-1-1.47-1.52a1,1,0,1,0-1.4,1.42C93.4,32.75,93.87,33.24,94.33,33.74Z"/><path d="M40.44,80.81a5.94,5.94,0,0,0,2.46-.54l.14.17a1,1,0,0,0,.74.33,1,1,0,0,0,.67-.26,1,1,0,0,0,.11-1.35A6,6,0,0,0,38.84,69a1,1,0,0,0-1.88.65c0,.07,0,.13.07.2a6,6,0,0,0,3.41,10.92Zm0-10a4,4,0,1,1-4,4A4,4,0,0,1,40.44,70.82Z"/><path d="M85.17,79.65a1,1,0,0,0,.78-.37c.44-.53.86-1.09,1.25-1.65A1,1,0,0,0,87,76.24a1,1,0,0,0-1.39.24c-.37.53-.76,1-1.16,1.54a1,1,0,0,0,.15,1.41A1,1,0,0,0,85.17,79.65Z"/><path d="M73.71,37.11q.9.36,1.77.78a1,1,0,0,0,.43.1,1,1,0,0,0,.44-1.9c-.61-.3-1.25-.58-1.89-.84a1,1,0,0,0-.75,1.86Z"/><path d="M49.64,83.47c-.54-.35-1.07-.72-1.57-1.11A1,1,0,1,0,46.85,84c.55.42,1.12.82,1.69,1.2a1,1,0,0,0,1.1-1.68Z"/><path d="M84.45,45c.4.5.79,1,1.15,1.55a1,1,0,0,0,.83.43,1,1,0,0,0,.57-.18,1,1,0,0,0,.25-1.39c-.39-.56-.81-1.12-1.24-1.66a1,1,0,0,0-1.41-.15A1,1,0,0,0,84.45,45Z"/><path d="M55.69,86.41c-.6-.2-1.21-.43-1.8-.68a1,1,0,1,0-.77,1.85c.63.26,1.29.51,1.94.73a1.19,1.19,0,0,0,.32,0,1,1,0,0,0,.31-2Z"/><path d="M81.1,41.58a1,1,0,0,0,.65.25,1,1,0,0,0,.65-1.76c-.52-.45-1.07-.89-1.62-1.3a1,1,0,0,0-1.4.21,1,1,0,0,0,.21,1.4C80.11,40.76,80.61,41.17,81.1,41.58Z"/><path d="M80.12,84.48a1,1,0,0,0,.59-.2c.56-.41,1.1-.84,1.63-1.29A1,1,0,1,0,81,81.47c-.49.42-1,.82-1.51,1.2a1,1,0,0,0-.22,1.4A1,1,0,0,0,80.12,84.48Z"/><path d="M76.74,85.62a1,1,0,0,0-1.34-.47c-.57.28-1.17.54-1.77.78A1,1,0,0,0,74,87.86a1.21,1.21,0,0,0,.37-.07c.64-.26,1.28-.54,1.9-.84A1,1,0,0,0,76.74,85.62Z"/><path d="M88.69,52.57a1,1,0,0,0,.94.66,1,1,0,0,0,.34-.06,1,1,0,0,0,.6-1.28c-.23-.65-.5-1.3-.78-1.93a1,1,0,1,0-1.82.82C88.23,51.37,88.47,52,88.69,52.57Z"/><path d="M88.43,73.62a1,1,0,0,0,.41.09,1,1,0,0,0,.92-.59c.28-.62.54-1.27.78-1.92a1,1,0,0,0-1.88-.68c-.22.6-.46,1.2-.73,1.78A1,1,0,0,0,88.43,73.62Z"/><path d="M91.86,66.19c.11-.67.2-1.36.27-2a1,1,0,0,0-.91-1.09,1,1,0,0,0-1.08.9c-.06.64-.15,1.29-.25,1.91A1,1,0,0,0,90.71,67h.17A1,1,0,0,0,91.86,66.19Z"/><path d="M89.9,57.23c.11.63.19,1.27.24,1.91a1,1,0,0,0,1,.91h.09A1,1,0,0,0,92.14,59c-.06-.69-.15-1.38-.26-2.06a1,1,0,0,0-2,.33Z"/><path d="M36.9,65.4H37a1,1,0,0,0,.89-1.11c-.07-.63-.11-1.28-.13-1.92a1,1,0,0,0-2,.07c0,.69.07,1.38.14,2.07A1,1,0,0,0,36.9,65.4Z"/><path d="M36.45,55.23c-.15.66-.28,1.35-.38,2a1,1,0,0,0,.84,1.13l.15,0a1,1,0,0,0,1-.86c.1-.63.22-1.27.36-1.89a1,1,0,1,0-1.95-.44Z"/><path d="M39.89,51.1c.26-.59.54-1.18.83-1.74A1,1,0,0,0,39,48.43c-.32.61-.62,1.24-.89,1.87a1,1,0,0,0,.52,1.32,1.1,1.1,0,0,0,.4.08A1,1,0,0,0,39.89,51.1Z"/><path d="M48.62,37.8c-.58.38-1.15.78-1.7,1.2a1,1,0,0,0,.61,1.8,1,1,0,0,0,.6-.21c.51-.39,1-.76,1.58-1.11a1,1,0,0,0-1.09-1.68Z"/><path d="M60.46,35.49c.64-.09,1.28-.15,1.92-.19a1,1,0,0,0,.94-1.06,1,1,0,0,0-1.06-.93c-.69,0-1.38.1-2.06.2a1,1,0,0,0-.86,1.12,1,1,0,0,0,1,.87Z"/><path d="M53.59,37.31a1.06,1.06,0,0,0,.38-.07c.59-.25,1.2-.47,1.81-.67a1,1,0,0,0,.63-1.27,1,1,0,0,0-1.26-.63c-.65.21-1.31.46-1.95.72a1,1,0,0,0,.39,1.92Z"/><path d="M69,87.27c-.63.12-1.27.22-1.91.3a1,1,0,0,0-.88,1.11,1,1,0,0,0,1,.88h.12c.68-.09,1.37-.19,2.05-.32a1,1,0,0,0-.38-2Z"/><path d="M69.1,35.75l.19,0a1,1,0,0,0,.2-2c-.68-.14-1.37-.25-2-.33a1,1,0,1,0-.24,2C67.83,35.52,68.47,35.62,69.1,35.75Z"/><path d="M62.3,87.7c-.64,0-1.29-.11-1.92-.2a1,1,0,0,0-.27,2c.68.09,1.37.16,2.06.2h.06a1,1,0,0,0,.07-2Z"/><path d="M43.33,45.32c.4-.51.82-1,1.25-1.48A1,1,0,0,0,43.1,42.5c-.46.5-.91,1-1.34,1.58a1,1,0,0,0,.17,1.4,1,1,0,0,0,.62.22A1,1,0,0,0,43.33,45.32Z"/></svg>